<svg width="1895" height="424" viewBox="0 0 1895 424" fill="none" xmlns="http://www.w3.org/2000/svg">
<circle cx="324.903" cy="382.284" r="41.0975" fill="#FF462D"/>
<rect y="174.47" width="183" height="191.53" fill="#FF462D"/>
<path d="M183 0C284.068 2.96362e-06 366 81.9319 366 183C366 284.068 284.068 366 183 366C81.9319 366 2.96439e-06 284.068 0 183C0 81.9319 81.9319 0 183 0ZM220.608 73.665C189.132 73.665 163.614 99.1825 163.614 130.659C163.614 162.136 189.132 187.652 220.608 187.652C252.085 187.652 277.601 162.136 277.602 130.659C277.602 99.1826 252.085 73.6652 220.608 73.665Z" fill="#FF462D"/>
<path d="M489.25 339.691C481.55 339.691 476.067 338.057 472.8 334.791C469.767 331.524 468.25 326.507 468.25 319.741V121.641C468.25 114.874 469.767 109.857 472.8 106.591C476.067 103.324 481.55 101.691 489.25 101.691H572.9C607.9 101.691 633.333 108.691 649.2 122.691C665.3 136.457 673.35 157.341 673.35 185.341C673.35 202.141 670.433 216.374 664.6 228.041C659 239.474 650.25 248.457 638.35 254.991L670.9 324.641C671.833 326.507 672.3 328.607 672.3 330.941C672.3 333.507 671.367 335.607 669.5 337.241C667.867 338.874 665.65 339.691 662.85 339.691H603.7C599.967 339.691 596.933 339.224 594.6 338.291C592.5 337.124 590.983 335.257 590.05 332.691L564.15 267.591H552.25V319.741C552.25 326.507 550.617 331.524 547.35 334.791C544.317 338.057 538.833 339.691 530.9 339.691H489.25ZM565.55 209.141C573.017 209.141 578.85 207.157 583.05 203.191C587.483 199.224 589.7 193.274 589.7 185.341C589.7 177.174 587.483 171.107 583.05 167.141C578.85 163.174 573.017 161.191 565.55 161.191H541.75V209.141H565.55ZM732.76 339.691C725.06 339.691 719.576 338.057 716.31 334.791C713.276 331.524 711.76 326.507 711.76 319.741V121.641C711.76 114.874 713.276 109.857 716.31 106.591C719.576 103.324 725.06 101.691 732.76 101.691H877.66C885.126 101.691 890.143 103.324 892.71 106.591C895.51 109.624 896.91 114.641 896.91 121.641V141.241C896.91 148.241 895.51 153.374 892.71 156.641C890.143 159.674 885.126 161.191 877.66 161.191H795.76V191.291H846.16C853.626 191.291 858.643 192.924 861.21 196.191C864.01 199.224 865.41 204.241 865.41 211.241V230.141C865.41 237.141 864.01 242.274 861.21 245.541C858.643 248.574 853.626 250.091 846.16 250.091H795.76V280.191H877.31C884.776 280.191 889.793 281.824 892.36 285.091C895.16 288.124 896.56 293.141 896.56 300.141V319.741C896.56 326.741 895.16 331.874 892.36 335.141C889.793 338.174 884.776 339.691 877.31 339.691H732.76ZM1037.34 344.941C1016.1 344.941 996.386 342.724 978.186 338.291C959.986 333.857 945.286 327.674 934.086 319.741C929.42 316.474 927.086 313.324 927.086 310.291C927.086 308.191 927.903 305.974 929.536 303.641L949.836 271.791C951.936 268.757 954.036 267.241 956.136 267.241C958.003 267.241 960.22 268.057 962.786 269.691C971.186 274.824 980.753 278.907 991.486 281.941C1002.45 284.741 1013.07 286.141 1023.34 286.141C1031.97 286.141 1038.15 284.974 1041.89 282.641C1045.85 280.307 1047.84 276.691 1047.84 271.791C1047.84 266.424 1045.27 262.107 1040.14 258.841C1035 255.574 1026.14 251.491 1013.54 246.591C989.97 237.491 971.42 227.224 957.886 215.791C944.353 204.124 937.586 188.724 937.586 169.591C937.586 145.324 945.986 127.124 962.786 114.991C979.82 102.624 1002.69 96.4407 1031.39 96.4407C1051.45 96.4407 1068.49 98.1907 1082.49 101.691C1096.72 105.191 1109.09 110.674 1119.59 118.141C1124.25 121.407 1126.59 124.557 1126.59 127.591C1126.59 129.691 1125.77 131.907 1124.14 134.241L1103.84 166.091C1101.74 169.357 1099.64 170.991 1097.54 170.991C1096.14 170.991 1093.92 170.057 1090.89 168.191C1085.29 164.457 1078.64 161.424 1070.94 159.091C1063.24 156.524 1054.95 155.241 1046.09 155.241C1037.92 155.241 1031.74 156.407 1027.54 158.741C1023.34 161.074 1021.24 164.807 1021.24 169.941C1021.24 174.141 1022.64 177.641 1025.44 180.441C1028.47 183.241 1032.2 185.691 1036.64 187.791C1041.07 189.657 1048.77 192.807 1059.74 197.241C1077.24 204.241 1091 211.007 1101.04 217.541C1111.07 223.841 1118.65 231.541 1123.79 240.641C1128.92 249.507 1131.49 260.824 1131.49 274.591C1131.49 295.591 1123.55 312.624 1107.69 325.691C1092.05 338.524 1068.6 344.941 1037.34 344.941ZM1191.07 339.691C1183.37 339.691 1177.89 338.057 1174.62 334.791C1171.59 331.524 1170.07 326.507 1170.07 319.741V121.641C1170.07 114.874 1171.59 109.857 1174.62 106.591C1177.89 103.324 1183.37 101.691 1191.07 101.691H1297.12C1325.59 101.691 1346.47 107.757 1359.77 119.891C1373.3 132.024 1380.07 149.291 1380.07 171.691C1380.07 182.191 1377.74 191.524 1373.07 199.691C1368.64 207.624 1362.69 213.224 1355.22 216.491C1375.99 223.491 1386.37 239.824 1386.37 265.491C1386.37 287.424 1378.55 305.274 1362.92 319.041C1347.52 332.807 1324.77 339.691 1294.67 339.691H1191.07ZM1280.32 191.641C1291.05 191.641 1296.42 186.507 1296.42 176.241C1296.42 165.974 1291.05 160.841 1280.32 160.841H1253.72V191.641H1280.32ZM1286.27 280.541C1291.17 280.541 1295.14 279.024 1298.17 275.991C1301.2 272.724 1302.72 268.407 1302.72 263.041C1302.72 257.441 1301.2 253.124 1298.17 250.091C1295.37 247.057 1291.4 245.541 1286.27 245.541H1253.72V280.541H1286.27ZM1535.67 344.941C1494.14 344.941 1462.64 334.207 1441.17 312.741C1419.7 291.041 1408.97 260.357 1408.97 220.691C1408.97 181.024 1419.7 150.457 1441.17 128.991C1462.64 107.291 1494.14 96.4407 1535.67 96.4407C1577.2 96.4407 1608.7 107.291 1630.17 128.991C1651.64 150.457 1662.37 181.024 1662.37 220.691C1662.37 260.357 1651.64 291.041 1630.17 312.741C1608.7 334.207 1577.2 344.941 1535.67 344.941ZM1535.67 286.141C1550.84 286.141 1561.8 280.774 1568.57 270.041C1575.34 259.074 1578.72 242.624 1578.72 220.691C1578.72 198.524 1575.34 182.074 1568.57 171.341C1561.8 160.607 1550.84 155.241 1535.67 155.241C1520.5 155.241 1509.54 160.607 1502.77 171.341C1496 182.074 1492.62 198.524 1492.62 220.691C1492.62 242.624 1496 259.074 1502.77 270.041C1509.54 280.774 1520.5 286.141 1535.67 286.141ZM1761.77 339.691C1754.07 339.691 1748.58 338.057 1745.32 334.791C1742.28 331.524 1740.77 326.507 1740.77 319.741V161.191H1690.37C1682.9 161.191 1677.77 159.674 1674.97 156.641C1672.4 153.374 1671.12 148.241 1671.12 141.241V121.641C1671.12 114.641 1672.4 109.624 1674.97 106.591C1677.77 103.324 1682.9 101.691 1690.37 101.691H1875.17C1882.63 101.691 1887.65 103.324 1890.22 106.591C1893.02 109.624 1894.42 114.641 1894.42 121.641V141.241C1894.42 148.241 1893.02 153.374 1890.22 156.641C1887.65 159.674 1882.63 161.191 1875.17 161.191H1824.77V319.741C1824.77 326.507 1823.13 331.524 1819.87 334.791C1816.83 338.057 1811.35 339.691 1803.42 339.691H1761.77Z" fill="#FF462D"/>
</svg>
